<svg width="454" height="433" viewBox="0 0 454 433" fill="none" xmlns="http://www.w3.org/2000/svg">
<g opacity="0.7" filter="url(#filter0_f_1447_1771)">
<path d="M-95.4941 4H67.9602C69.6583 4 71.1937 5.01001 71.8661 6.56933L162.208 216.676L252.552 6.56933C253.224 5.01001 254.76 4 256.458 4H419.912C423.702 4 425.564 8.6227 422.893 11.3104C392.662 41.7247 365.42 70.2541 340.722 96.1183C258.43 182.298 204.392 239.802 162.208 237.944C120.025 239.802 65.9877 182.298 -16.3044 96.1184C-41.0019 70.2541 -68.2443 41.7247 -98.475 11.3104C-101.146 8.6227 -99.2836 4 -95.4941 4Z" fill="url(#paint0_linear_1447_1771)"/>
<path d="M-95.4941 574.022H67.9602C69.6583 574.022 71.1937 573.012 71.8661 571.453L162.208 361.346L252.552 571.453C253.224 573.012 254.76 574.022 256.458 574.022H419.912C423.702 574.022 425.564 569.4 422.893 566.712C392.662 536.298 365.42 507.768 340.722 481.904C258.43 395.724 204.392 338.22 162.208 340.078C120.025 338.22 65.9877 395.724 -16.3044 481.904C-41.0019 507.768 -68.2443 536.298 -98.475 566.712C-101.146 569.4 -99.2836 574.022 -95.4941 574.022Z" fill="url(#paint1_linear_1447_1771)"/>
<path d="M449.014 33.4271V196.881C449.014 198.58 448.004 200.115 446.445 200.787L236.338 291.13L446.445 381.473C448.004 382.146 449.014 383.681 449.014 385.379V548.833C449.014 552.623 444.391 554.486 441.704 551.814C411.289 521.584 382.76 494.341 356.896 469.644C270.716 387.352 213.212 333.313 215.07 291.13C213.212 248.946 270.716 194.909 356.896 112.617C382.76 87.9193 411.289 60.6769 441.704 30.4462C444.391 27.7748 449.014 29.6376 449.014 33.4271Z" fill="url(#paint2_linear_1447_1771)"/>
<path d="M-121 33.4271L-121 196.881C-121 198.58 -119.99 200.115 -118.431 200.787L91.6763 291.13L-118.431 381.473C-119.99 382.146 -121 383.681 -121 385.379L-121 548.833C-121 552.623 -116.377 554.486 -113.69 551.814C-83.2753 521.584 -54.7459 494.341 -28.8817 469.644C57.298 387.352 114.802 333.313 112.944 291.13C114.802 248.946 57.298 194.909 -28.8816 112.617C-54.7459 87.9193 -83.2753 60.6769 -113.69 30.4462C-116.377 27.7748 -121 29.6376 -121 33.4271Z" fill="url(#paint3_linear_1447_1771)"/>
<path d="M198.014 288.654C198.014 307.447 182.779 322.682 163.986 322.682C145.193 322.682 129.958 307.447 129.958 288.654C129.958 269.861 145.193 254.626 163.986 254.626C182.779 254.626 198.014 269.861 198.014 288.654Z" fill="url(#paint4_linear_1447_1771)"/>
</g>
<defs>
<filter id="filter0_f_1447_1771" x="-125" y="0" width="578.014" height="578.021" filterUnits="userSpaceOnUse" color-interpolation-filters="sRGB">
<feFlood flood-opacity="0" result="BackgroundImageFix"/>
<feBlend mode="normal" in="SourceGraphic" in2="BackgroundImageFix" result="shape"/>
<feGaussianBlur stdDeviation="2" result="effect1_foregroundBlur_1447_1771"/>
</filter>
<linearGradient id="paint0_linear_1447_1771" x1="174" y1="-8.5" x2="171.29" y2="508.009" gradientUnits="userSpaceOnUse">
<stop stop-color="#FF9A71"/>
<stop offset="0.825572" stop-color="#111316"/>
</linearGradient>
<linearGradient id="paint1_linear_1447_1771" x1="174" y1="-8.5" x2="171.29" y2="508.009" gradientUnits="userSpaceOnUse">
<stop stop-color="#FF9A71"/>
<stop offset="0.825572" stop-color="#111316"/>
</linearGradient>
<linearGradient id="paint2_linear_1447_1771" x1="174" y1="-8.5" x2="171.29" y2="508.009" gradientUnits="userSpaceOnUse">
<stop stop-color="#FF9A71"/>
<stop offset="0.825572" stop-color="#111316"/>
</linearGradient>
<linearGradient id="paint3_linear_1447_1771" x1="174" y1="-8.5" x2="171.29" y2="508.009" gradientUnits="userSpaceOnUse">
<stop stop-color="#FF9A71"/>
<stop offset="0.825572" stop-color="#111316"/>
</linearGradient>
<linearGradient id="paint4_linear_1447_1771" x1="174" y1="-8.5" x2="171.29" y2="508.009" gradientUnits="userSpaceOnUse">
<stop stop-color="#FF9A71"/>
<stop offset="0.825572" stop-color="#111316"/>
</linearGradient>
</defs>
</svg>
