<svg width="275" height="275" viewBox="0 0 275 275" fill="none" xmlns="http://www.w3.org/2000/svg">
<path d="M12.2923 0H91.0673C91.8857 0 92.6257 0.486762 92.9497 1.23826L136.489 102.497L180.029 1.23826C180.353 0.486762 181.093 0 181.912 0H260.687C262.513 0 263.411 2.22786 262.123 3.52315C247.554 18.181 234.425 31.9304 222.522 44.3954C182.862 85.9287 156.819 113.642 136.489 112.747C116.159 113.642 90.1167 85.9287 50.4569 44.3954C38.5542 31.9304 25.425 18.181 10.8557 3.52315C9.56822 2.22786 10.466 0 12.2923 0Z" fill="url(#paint0_linear_1416_110)"/>
<path d="M12.2923 274.716H91.0673C91.8857 274.716 92.6257 274.229 92.9497 273.478L136.489 172.219L180.029 273.478C180.353 274.229 181.093 274.716 181.912 274.716H260.687C262.513 274.716 263.411 272.488 262.123 271.193C247.554 256.535 234.425 242.785 222.522 230.32C182.862 188.787 156.819 161.074 136.489 161.969C116.159 161.074 90.1167 188.787 50.4569 230.32C38.5542 242.785 25.425 256.535 10.8557 271.193C9.56822 272.488 10.466 274.716 12.2923 274.716Z" fill="url(#paint1_linear_1416_110)"/>
<path d="M274.712 14.182V92.9571C274.712 93.7755 274.225 94.5154 273.474 94.8395L172.215 138.379L273.474 181.919C274.225 182.243 274.712 182.983 274.712 183.801V262.576C274.712 264.403 272.484 265.3 271.189 264.013C256.531 249.444 242.782 236.315 230.317 224.412C188.783 184.752 161.07 158.709 161.965 138.379C161.07 118.049 188.783 92.0064 230.316 52.3467C242.782 40.444 256.531 27.3148 271.189 12.7455C272.484 11.458 274.712 12.3557 274.712 14.182Z" fill="url(#paint2_linear_1416_110)"/>
<path d="M1.08577e-05 14.182L7.41429e-06 92.9571C7.37852e-06 93.7755 0.486769 94.5154 1.23827 94.8395L102.497 138.379L1.23827 181.919C0.486766 182.243 3.47913e-06 182.983 3.44336e-06 183.801L0 262.576C-7.98304e-08 264.403 2.22786 265.3 3.52316 264.013C18.181 249.444 31.9304 236.315 44.3954 224.412C85.9287 184.752 113.642 158.709 112.747 138.379C113.642 118.049 85.9287 92.0064 44.3954 52.3467C31.9304 40.444 18.181 27.3148 3.52317 12.7455C2.22787 11.458 1.09375e-05 12.3557 1.08577e-05 14.182Z" fill="url(#paint3_linear_1416_110)"/>
<path d="M153.745 137.186C153.745 146.243 146.403 153.585 137.346 153.585C128.289 153.585 120.946 146.243 120.946 137.186C120.946 128.129 128.289 120.786 137.346 120.786C146.403 120.786 153.745 128.129 153.745 137.186Z" fill="url(#paint4_linear_1416_110)"/>
<defs>
<linearGradient id="paint0_linear_1416_110" x1="137.356" y1="0" x2="137.356" y2="411.266" gradientUnits="userSpaceOnUse">
<stop stop-color="white"/>
<stop offset="0.845644" stop-color="#050505" stop-opacity="0.0196392"/>
</linearGradient>
<linearGradient id="paint1_linear_1416_110" x1="137.356" y1="0" x2="137.356" y2="411.266" gradientUnits="userSpaceOnUse">
<stop stop-color="white"/>
<stop offset="0.845644" stop-color="#050505" stop-opacity="0.0196392"/>
</linearGradient>
<linearGradient id="paint2_linear_1416_110" x1="137.356" y1="0" x2="137.356" y2="411.266" gradientUnits="userSpaceOnUse">
<stop stop-color="white"/>
<stop offset="0.845644" stop-color="#050505" stop-opacity="0.0196392"/>
</linearGradient>
<linearGradient id="paint3_linear_1416_110" x1="137.356" y1="0" x2="137.356" y2="411.266" gradientUnits="userSpaceOnUse">
<stop stop-color="white"/>
<stop offset="0.845644" stop-color="#050505" stop-opacity="0.0196392"/>
</linearGradient>
<linearGradient id="paint4_linear_1416_110" x1="137.356" y1="0" x2="137.356" y2="411.266" gradientUnits="userSpaceOnUse">
<stop stop-color="white"/>
<stop offset="0.845644" stop-color="#050505" stop-opacity="0.0196392"/>
</linearGradient>
</defs>
</svg>
