<svg width="1728" height="1227" viewBox="0 0 1728 1227" fill="none" xmlns="http://www.w3.org/2000/svg">
<path d="M1727.5 0.5H1585C1474.82 0.5 1385.5 89.8192 1385.5 200V1027C1385.5 1137.18 1474.82 1226.5 1585 1226.5H1727.5V0.5Z" fill="url(#paint0_linear_1775_4581)" fill-opacity="0.2"/>
<path d="M1727.5 0.5H1585C1474.82 0.5 1385.5 89.8192 1385.5 200V1027C1385.5 1137.18 1474.82 1226.5 1585 1226.5H1727.5V0.5Z" stroke="#141519"/>
<path d="M0 0H1185C1295.46 0 1385 89.5431 1385 200V1027C1385 1137.46 1295.46 1227 1185 1227H0V0Z" fill="url(#paint1_linear_1775_4581)" fill-opacity="0.2"/>
<defs>
<linearGradient id="paint0_linear_1775_4581" x1="1925.5" y1="614" x2="1338.5" y2="614" gradientUnits="userSpaceOnUse">
<stop offset="0.261926"/>
<stop offset="1" stop-color="#DCDCDC"/>
</linearGradient>
<linearGradient id="paint1_linear_1775_4581" x1="-1.74569e-07" y1="614" x2="1510.5" y2="614" gradientUnits="userSpaceOnUse">
<stop offset="0.334304"/>
<stop offset="1" stop-color="#DCDCDC"/>
</linearGradient>
</defs>
</svg>
