<svg width="21" height="21" viewBox="0 0 21 21" fill="none" xmlns="http://www.w3.org/2000/svg">
<path d="M10.5 0.5C16.023 0.5 20.5 4.977 20.5 10.5C20.5 16.023 16.023 20.5 10.5 20.5C8.73277 20.503 6.9966 20.0353 5.47002 19.145L0.504015 20.5L1.85602 15.532C0.964974 14.0049 0.496918 12.268 0.500015 10.5C0.500015 4.977 4.97702 0.5 10.5 0.5ZM7.09202 5.8L6.89201 5.808C6.76271 5.81691 6.63636 5.85087 6.52002 5.908C6.41159 5.96951 6.31258 6.0463 6.22602 6.136C6.10602 6.249 6.03802 6.347 5.96502 6.442C5.59514 6.9229 5.39599 7.51331 5.39902 8.12C5.40102 8.61 5.52902 9.087 5.72902 9.533C6.13802 10.435 6.81102 11.39 7.69902 12.275C7.91302 12.488 8.12302 12.702 8.34902 12.901C9.45245 13.8724 10.7673 14.573 12.189 14.947L12.757 15.034C12.942 15.044 13.127 15.03 13.313 15.021C13.6042 15.0056 13.8885 14.9268 14.146 14.79C14.2769 14.7223 14.4047 14.6489 14.529 14.57C14.529 14.57 14.5714 14.5413 14.654 14.48C14.789 14.38 14.872 14.309 14.984 14.192C15.068 14.1053 15.138 14.0047 15.194 13.89C15.272 13.727 15.35 13.416 15.382 13.157C15.406 12.959 15.399 12.851 15.396 12.784C15.392 12.677 15.303 12.566 15.206 12.519L14.624 12.258C14.624 12.258 13.754 11.879 13.222 11.637C13.1663 11.6128 13.1067 11.5989 13.046 11.596C12.9776 11.5888 12.9084 11.5965 12.8432 11.6184C12.778 11.6403 12.7182 11.676 12.668 11.723C12.663 11.721 12.596 11.778 11.873 12.654C11.8315 12.7098 11.7744 12.7519 11.7088 12.7751C11.6433 12.7982 11.5723 12.8013 11.505 12.784C11.4398 12.7666 11.376 12.7446 11.314 12.718C11.19 12.666 11.147 12.646 11.062 12.61C10.4879 12.3599 9.95646 12.0215 9.48702 11.607C9.36102 11.497 9.24402 11.377 9.12402 11.261C8.73063 10.8842 8.38777 10.458 8.10401 9.993L8.04501 9.898C8.00328 9.8338 7.96905 9.76501 7.94302 9.693C7.90502 9.546 8.00402 9.428 8.00402 9.428C8.00402 9.428 8.24702 9.162 8.36002 9.018C8.47002 8.878 8.56301 8.742 8.62302 8.645C8.74102 8.455 8.77802 8.26 8.71602 8.109C8.43602 7.425 8.14668 6.74467 7.84802 6.068C7.78902 5.934 7.61402 5.838 7.45502 5.819C7.40102 5.81233 7.34701 5.807 7.29302 5.803C7.15874 5.7953 7.02411 5.79664 6.89002 5.807L7.09202 5.8Z" fill="white"/>
</svg>
